<?xml version="1.0" encoding="utf-8"?>
<svg version="1.1" xmlns:xlink="http://www.w3.org/1999/xlink" width="260px" height="260px" xmlns="http://www.w3.org/2000/svg">
  <g transform="matrix(1 0 0 1 -20 -20 )">
    <path d="M 20 20  L 280 20  L 280 280  L 20 280  L 20 20  " fill-rule="nonzero" fill="#cccccc" stroke="none" />
    <path d="M 38 38  L 262 38  L 262 262  L 38 262  L 38 38  " fill-rule="nonzero" fill="#ffffff" stroke="none" />
    <path d="M 174.7 98  C 163.78 98  155.2 89.42  155.2 78.5  C 155.2 67.58  163.78 59  174.7 59  C 185.62 59  194.2 67.58  194.2 78.5  C 194.2 89.42  185.62 98  174.7 98  " fill-rule="nonzero" fill="#cccccc" stroke="none" />
    <path d="M 45 256  L 45 139.95  L 97.75 87.2  L 171.6 129.4  L 213.8 118.85  L 256 129.4  L 256 256  L 45 256  " fill-rule="nonzero" fill="#169bd5" stroke="none" />
  </g>
</svg>